<svg width="106" height="24" viewBox="0 0 106 24" fill="none" xmlns="http://www.w3.org/2000/svg">
<path d="M0.072 20.5V0.619999H3.936V17.112H14.072V20.5H0.072ZM24.4701 20.64C23.0141 20.64 21.6887 20.36 20.4941 19.8C19.3181 19.24 18.3007 18.484 17.4421 17.532C16.6021 16.5613 15.9487 15.4787 15.4821 14.284C15.0154 13.0707 14.7821 11.8293 14.7821 10.56C14.7821 9.23467 15.0247 7.97467 15.5101 6.78C16.0141 5.56667 16.6954 4.49333 17.5541 3.56C18.4314 2.608 19.4581 1.86133 20.6341 1.32C21.8287 0.759999 23.1354 0.479999 24.5541 0.479999C25.9914 0.479999 27.2981 0.769333 28.4741 1.348C29.6687 1.92667 30.6861 2.70133 31.5261 3.672C32.3661 4.64267 33.0194 5.72533 33.4861 6.92C33.9527 8.11467 34.1861 9.34667 34.1861 10.616C34.1861 11.9227 33.9434 13.1827 33.4581 14.396C32.9727 15.5907 32.2914 16.664 31.4141 17.616C30.5554 18.5493 29.5287 19.2867 28.3341 19.828C27.1581 20.3693 25.8701 20.64 24.4701 20.64ZM18.7021 10.56C18.7021 11.4187 18.8327 12.2493 19.0941 13.052C19.3554 13.8547 19.7287 14.5733 20.2141 15.208C20.7181 15.824 21.3247 16.3187 22.0341 16.692C22.7621 17.0467 23.5834 17.224 24.4981 17.224C25.4314 17.224 26.2621 17.0373 26.9901 16.664C27.7181 16.272 28.3247 15.7587 28.8101 15.124C29.2954 14.4707 29.6594 13.752 29.9021 12.968C30.1634 12.1653 30.2941 11.3627 30.2941 10.56C30.2941 9.70133 30.1541 8.88 29.8741 8.096C29.6127 7.29333 29.2301 6.584 28.7261 5.968C28.2407 5.33333 27.6341 4.83867 26.9061 4.484C26.1967 4.11067 25.3941 3.924 24.4981 3.924C23.5461 3.924 22.7061 4.12 21.9781 4.512C21.2687 4.88533 20.6714 5.38933 20.1861 6.024C19.7007 6.65867 19.3274 7.368 19.0661 8.152C18.8234 8.936 18.7021 9.73867 18.7021 10.56ZM45.4101 20.64C44.1221 20.64 42.8995 20.3787 41.7421 19.856C40.6035 19.3333 39.5955 18.6147 38.7181 17.7C37.8595 16.7667 37.1875 15.684 36.7021 14.452C36.2168 13.22 35.9741 11.8853 35.9741 10.448C35.9741 9.08533 36.2168 7.80667 36.7021 6.612C37.1875 5.39867 37.8688 4.33467 38.7461 3.42C39.6235 2.50533 40.6501 1.78667 41.8261 1.264C43.0021 0.741332 44.2808 0.479999 45.6621 0.479999C47.5288 0.479999 49.1248 0.881332 50.4501 1.684C51.7941 2.468 52.8021 3.51333 53.4741 4.82L50.5901 6.948C50.0861 5.95867 49.3768 5.20267 48.4621 4.68C47.5661 4.15733 46.5861 3.896 45.5221 3.896C44.6821 3.896 43.9168 4.07333 43.2261 4.428C42.5355 4.78267 41.9381 5.268 41.4341 5.884C40.9301 6.5 40.5381 7.20933 40.2581 8.012C39.9968 8.81467 39.8661 9.664 39.8661 10.56C39.8661 11.512 40.0061 12.3893 40.2861 13.192C40.5848 13.9947 40.9955 14.6947 41.5181 15.292C42.0595 15.8893 42.6848 16.3653 43.3941 16.72C44.1035 17.056 44.8875 17.224 45.7461 17.224C46.7541 17.224 47.7155 16.9627 48.6301 16.44C49.5635 15.9173 50.4315 15.152 51.2341 14.144V17.952C49.5728 19.744 47.6315 20.64 45.4101 20.64ZM50.9541 13.108H46.9501V10.28H54.1461V20.5H50.9541V13.108ZM65.9232 20.64C64.4672 20.64 63.1419 20.36 61.9472 19.8C60.7712 19.24 59.7539 18.484 58.8952 17.532C58.0552 16.5613 57.4019 15.4787 56.9352 14.284C56.4685 13.0707 56.2352 11.8293 56.2352 10.56C56.2352 9.23467 56.4779 7.97467 56.9632 6.78C57.4672 5.56667 58.1485 4.49333 59.0072 3.56C59.8845 2.608 60.9112 1.86133 62.0872 1.32C63.2819 0.759999 64.5885 0.479999 66.0072 0.479999C67.4445 0.479999 68.7512 0.769333 69.9272 1.348C71.1219 1.92667 72.1392 2.70133 72.9792 3.672C73.8192 4.64267 74.4725 5.72533 74.9392 6.92C75.4059 8.11467 75.6392 9.34667 75.6392 10.616C75.6392 11.9227 75.3965 13.1827 74.9112 14.396C74.4259 15.5907 73.7445 16.664 72.8672 17.616C72.0085 18.5493 70.9819 19.2867 69.7872 19.828C68.6112 20.3693 67.3232 20.64 65.9232 20.64ZM60.1552 10.56C60.1552 11.4187 60.2859 12.2493 60.5472 13.052C60.8085 13.8547 61.1819 14.5733 61.6672 15.208C62.1712 15.824 62.7779 16.3187 63.4872 16.692C64.2152 17.0467 65.0365 17.224 65.9512 17.224C66.8845 17.224 67.7152 17.0373 68.4432 16.664C69.1712 16.272 69.7779 15.7587 70.2632 15.124C70.7485 14.4707 71.1125 13.752 71.3552 12.968C71.6165 12.1653 71.7472 11.3627 71.7472 10.56C71.7472 9.70133 71.6072 8.88 71.3272 8.096C71.0659 7.29333 70.6832 6.584 70.1792 5.968C69.6939 5.33333 69.0872 4.83867 68.3592 4.484C67.6499 4.11067 66.8472 3.924 65.9512 3.924C64.9992 3.924 64.1592 4.12 63.4312 4.512C62.7219 4.88533 62.1245 5.38933 61.6392 6.024C61.1539 6.65867 60.7805 7.368 60.5192 8.152C60.2765 8.936 60.1552 9.73867 60.1552 10.56ZM78.0433 23.888V20.5H88.3193V23.888H78.0433ZM91.8923 20.5V0.619999H95.7563V17.112H105.892V20.5H91.8923Z" fill="#054A29"/>
</svg>
